<svg id="visual" viewBox="0 0 900 600" width="900" height="600" xmlns="http://www.w3.org/2000/svg" xmlns:xlink="http://www.w3.org/1999/xlink" version="1.1"><g stroke-width="1" stroke-linejoin="bevel"><path d="M515 325L520 385L565 291Z" fill="#0f2209" stroke="#0f2209"></path><path d="M520 385L561 411L565 291Z" fill="#3a3b0e" stroke="#3a3b0e"></path><path d="M561 411L715 335L565 291Z" fill="#2c340d" stroke="#2c340d"></path><path d="M561 411L704 410L715 335Z" fill="#001c05" stroke="#001c05"></path><path d="M507 500L576 511L561 411Z" fill="#1f2d0c" stroke="#1f2d0c"></path><path d="M561 411L704 471L704 410Z" fill="#14260a" stroke="#14260a"></path><path d="M385 477L507 500L520 385Z" fill="#33380e" stroke="#33380e"></path><path d="M520 385L507 500L561 411Z" fill="#3a3b0e" stroke="#3a3b0e"></path><path d="M576 511L704 471L561 411Z" fill="#14260a" stroke="#14260a"></path><path d="M791 412L765 276L715 335Z" fill="#33380e" stroke="#33380e"></path><path d="M715 335L627 170L565 291Z" fill="#423e0f" stroke="#423e0f"></path><path d="M565 291L508 165L515 325Z" fill="#0f2209" stroke="#0f2209"></path><path d="M627 170L508 165L565 291Z" fill="#1f2d0c" stroke="#1f2d0c"></path><path d="M515 325L374 391L520 385Z" fill="#192a0b" stroke="#192a0b"></path><path d="M374 306L374 391L515 325Z" fill="#423e0f" stroke="#423e0f"></path><path d="M508 165L374 306L515 325Z" fill="#33380e" stroke="#33380e"></path><path d="M791 412L715 335L704 410Z" fill="#33380e" stroke="#33380e"></path><path d="M715 335L693 172L627 170Z" fill="#25310d" stroke="#25310d"></path><path d="M765 276L693 172L715 335Z" fill="#0f2209" stroke="#0f2209"></path><path d="M592 95L519 104L508 165Z" fill="#25310d" stroke="#25310d"></path><path d="M374 391L385 477L520 385Z" fill="#081f07" stroke="#081f07"></path><path d="M704 471L791 412L704 410Z" fill="#25310d" stroke="#25310d"></path><path d="M592 95L508 165L627 170Z" fill="#0f2209" stroke="#0f2209"></path><path d="M508 165L365 192L374 306Z" fill="#0f2209" stroke="#0f2209"></path><path d="M497 600L627 600L576 511Z" fill="#3a3b0e" stroke="#3a3b0e"></path><path d="M576 511L671 600L704 471Z" fill="#1f2d0c" stroke="#1f2d0c"></path><path d="M704 471L838 535L791 412Z" fill="#0f2209" stroke="#0f2209"></path><path d="M497 600L576 511L507 500Z" fill="#423e0f" stroke="#423e0f"></path><path d="M715 95L592 95L627 170Z" fill="#001c05" stroke="#001c05"></path><path d="M378 71L365 192L508 165Z" fill="#2c340d" stroke="#2c340d"></path><path d="M374 306L311 386L374 391Z" fill="#2c340d" stroke="#2c340d"></path><path d="M410 600L497 600L507 500Z" fill="#081f07" stroke="#081f07"></path><path d="M374 391L311 386L385 477Z" fill="#081f07" stroke="#081f07"></path><path d="M282 288L311 386L374 306Z" fill="#14260a" stroke="#14260a"></path><path d="M627 600L671 600L576 511Z" fill="#2c340d" stroke="#2c340d"></path><path d="M330 65L327 211L365 192Z" fill="#2c340d" stroke="#2c340d"></path><path d="M365 192L327 211L374 306Z" fill="#14260a" stroke="#14260a"></path><path d="M765 276L777 161L693 172Z" fill="#2c340d" stroke="#2c340d"></path><path d="M693 172L715 95L627 170Z" fill="#33380e" stroke="#33380e"></path><path d="M900 237L777 161L765 276Z" fill="#0f2209" stroke="#0f2209"></path><path d="M327 211L282 288L374 306Z" fill="#0f2209" stroke="#0f2209"></path><path d="M777 161L715 95L693 172Z" fill="#3a3b0e" stroke="#3a3b0e"></path><path d="M385 477L410 600L507 500Z" fill="#14260a" stroke="#14260a"></path><path d="M311 531L410 600L385 477Z" fill="#0f2209" stroke="#0f2209"></path><path d="M200 533L311 531L311 386Z" fill="#001c05" stroke="#001c05"></path><path d="M311 386L311 531L385 477Z" fill="#001c05" stroke="#001c05"></path><path d="M777 161L761 101L715 95Z" fill="#14260a" stroke="#14260a"></path><path d="M824 600L838 535L704 471Z" fill="#1f2d0c" stroke="#1f2d0c"></path><path d="M791 412L900 391L765 276Z" fill="#33380e" stroke="#33380e"></path><path d="M900 474L900 391L791 412Z" fill="#081f07" stroke="#081f07"></path><path d="M777 161L900 64L761 101Z" fill="#14260a" stroke="#14260a"></path><path d="M460 0L378 71L519 104Z" fill="#423e0f" stroke="#423e0f"></path><path d="M519 104L378 71L508 165Z" fill="#25310d" stroke="#25310d"></path><path d="M168 160L211 330L282 288Z" fill="#3a3b0e" stroke="#3a3b0e"></path><path d="M629 0L519 104L592 95Z" fill="#0f2209" stroke="#0f2209"></path><path d="M900 391L900 275L765 276Z" fill="#3a3b0e" stroke="#3a3b0e"></path><path d="M311 531L329 600L410 600Z" fill="#25310d" stroke="#25310d"></path><path d="M900 275L900 237L765 276Z" fill="#3a3b0e" stroke="#3a3b0e"></path><path d="M838 535L900 474L791 412Z" fill="#423e0f" stroke="#423e0f"></path><path d="M674 0L592 95L715 95Z" fill="#192a0b" stroke="#192a0b"></path><path d="M674 0L629 0L592 95Z" fill="#001c05" stroke="#001c05"></path><path d="M671 600L824 600L704 471Z" fill="#192a0b" stroke="#192a0b"></path><path d="M838 535L900 600L900 474Z" fill="#33380e" stroke="#33380e"></path><path d="M168 160L282 288L327 211Z" fill="#1f2d0c" stroke="#1f2d0c"></path><path d="M282 288L211 330L311 386Z" fill="#25310d" stroke="#25310d"></path><path d="M311 531L226 600L329 600Z" fill="#2c340d" stroke="#2c340d"></path><path d="M767 0L674 0L715 95Z" fill="#081f07" stroke="#081f07"></path><path d="M767 0L715 95L761 101Z" fill="#423e0f" stroke="#423e0f"></path><path d="M629 0L460 0L519 104Z" fill="#0f2209" stroke="#0f2209"></path><path d="M332 0L330 65L378 71Z" fill="#14260a" stroke="#14260a"></path><path d="M378 71L330 65L365 192Z" fill="#33380e" stroke="#33380e"></path><path d="M211 330L194 384L311 386Z" fill="#001c05" stroke="#001c05"></path><path d="M460 0L414 0L378 71Z" fill="#2c340d" stroke="#2c340d"></path><path d="M900 64L767 0L761 101Z" fill="#081f07" stroke="#081f07"></path><path d="M194 384L200 533L311 386Z" fill="#25310d" stroke="#25310d"></path><path d="M824 600L900 600L838 535Z" fill="#001c05" stroke="#001c05"></path><path d="M414 0L332 0L378 71Z" fill="#25310d" stroke="#25310d"></path><path d="M330 65L226 76L327 211Z" fill="#001c05" stroke="#001c05"></path><path d="M200 533L226 600L311 531Z" fill="#14260a" stroke="#14260a"></path><path d="M900 237L900 64L777 161Z" fill="#1f2d0c" stroke="#1f2d0c"></path><path d="M332 0L226 76L330 65Z" fill="#2c340d" stroke="#2c340d"></path><path d="M211 330L107 401L194 384Z" fill="#3a3b0e" stroke="#3a3b0e"></path><path d="M226 76L168 160L327 211Z" fill="#14260a" stroke="#14260a"></path><path d="M194 384L107 401L200 533Z" fill="#423e0f" stroke="#423e0f"></path><path d="M60 285L107 401L211 330Z" fill="#3a3b0e" stroke="#3a3b0e"></path><path d="M200 533L112 600L226 600Z" fill="#3a3b0e" stroke="#3a3b0e"></path><path d="M900 64L900 0L767 0Z" fill="#081f07" stroke="#081f07"></path><path d="M0 120L93 230L168 160Z" fill="#423e0f" stroke="#423e0f"></path><path d="M168 160L93 230L211 330Z" fill="#14260a" stroke="#14260a"></path><path d="M332 0L196 0L226 76Z" fill="#192a0b" stroke="#192a0b"></path><path d="M226 76L128 64L168 160Z" fill="#2c340d" stroke="#2c340d"></path><path d="M0 335L60 285L0 199Z" fill="#1f2d0c" stroke="#1f2d0c"></path><path d="M93 230L60 285L211 330Z" fill="#1f2d0c" stroke="#1f2d0c"></path><path d="M65 528L200 533L107 401Z" fill="#0f2209" stroke="#0f2209"></path><path d="M65 528L112 600L200 533Z" fill="#3a3b0e" stroke="#3a3b0e"></path><path d="M196 0L128 64L226 76Z" fill="#1f2d0c" stroke="#1f2d0c"></path><path d="M0 460L65 528L107 401Z" fill="#2c340d" stroke="#2c340d"></path><path d="M0 199L60 285L93 230Z" fill="#1f2d0c" stroke="#1f2d0c"></path><path d="M60 285L0 335L107 401Z" fill="#423e0f" stroke="#423e0f"></path><path d="M0 335L0 369L107 401Z" fill="#423e0f" stroke="#423e0f"></path><path d="M0 369L0 460L107 401Z" fill="#1f2d0c" stroke="#1f2d0c"></path><path d="M65 528L0 600L112 600Z" fill="#001c05" stroke="#001c05"></path><path d="M0 120L0 199L93 230Z" fill="#081f07" stroke="#081f07"></path><path d="M196 0L79 0L128 64Z" fill="#192a0b" stroke="#192a0b"></path><path d="M128 64L0 120L168 160Z" fill="#0f2209" stroke="#0f2209"></path><path d="M79 0L0 120L128 64Z" fill="#14260a" stroke="#14260a"></path><path d="M0 460L0 600L65 528Z" fill="#423e0f" stroke="#423e0f"></path><path d="M79 0L0 0L0 120Z" fill="#14260a" stroke="#14260a"></path></g></svg>